<?xml version="1.0" encoding="UTF-8" ?>
<!DOCTYPE svg PUBLIC "-//W3C//DTD SVG 1.1//EN" "http://www.w3.org/Graphics/SVG/1.1/DTD/svg11.dtd">
<svg width="245pt" height="245pt" viewBox="0 0 245 245" version="1.1" xmlns="http://www.w3.org/2000/svg">
<g id="#ffe840ff">
<path fill="#ffe840" opacity="1.00" d=" M 122.30 0.00 L 122.61 0.00 C 125.98 15.64 133.64 30.17 143.98 42.32 C 159.08 36.90 173.22 28.15 183.81 16.00 C 186.96 31.81 185.75 48.30 181.26 63.74 C 196.71 59.24 213.18 58.11 229.02 61.14 C 216.87 71.78 208.10 85.92 202.68 101.05 C 214.87 111.31 229.34 119.06 245.00 122.37 L 245.00 122.68 C 233.11 133.24 218.33 140.11 202.98 143.97 C 214.25 155.28 223.78 168.63 228.83 183.90 C 213.48 178.96 196.98 178.32 181.15 181.11 C 178.28 196.95 178.96 213.47 183.90 228.84 C 168.63 223.75 155.29 214.25 143.95 203.00 C 140.14 218.35 133.21 233.08 122.70 245.00 L 122.39 245.00 C 119.03 229.35 111.36 214.81 101.01 202.67 C 85.89 208.11 71.78 216.89 61.13 229.01 C 58.13 213.17 59.23 196.70 63.74 181.26 C 48.28 185.80 31.81 186.84 15.96 183.90 C 28.11 173.25 36.92 159.09 42.32 143.93 C 30.12 133.70 15.66 125.90 0.00 122.63 L 0.00 122.34 C 11.87 111.76 26.66 104.89 42.00 101.05 C 30.73 89.69 21.25 76.33 16.12 61.06 C 31.49 66.08 48.03 66.66 63.90 63.90 C 66.65 48.05 66.13 31.52 61.10 16.17 C 76.39 21.19 89.69 30.79 101.05 42.00 C 104.87 26.65 111.79 11.91 122.30 0.00 M 110.65 40.72 C 95.99 42.86 81.92 48.98 70.45 58.37 C 53.06 72.32 41.84 93.65 40.13 115.88 C 38.55 134.46 43.66 153.49 54.15 168.88 C 66.23 186.82 85.63 199.66 106.90 203.65 C 122.99 206.83 140.00 204.94 155.04 198.45 C 175.00 189.97 191.31 173.28 199.24 153.09 C 206.00 136.39 207.00 117.48 202.06 100.16 C 196.85 81.59 184.96 64.97 168.96 54.20 C 152.10 42.66 130.86 37.66 110.65 40.72 Z" />
<path fill="#ffe840" opacity="1.00" d=" M 115.59 49.73 C 126.30 48.44 137.29 50.14 147.42 53.73 C 165.87 60.35 181.32 74.74 189.28 92.64 C 195.65 106.78 197.37 122.97 193.97 138.11 C 189.49 159.28 174.96 177.97 155.66 187.71 C 132.84 199.59 103.77 198.04 82.41 183.65 C 65.12 172.42 52.96 153.54 50.15 133.08 C 47.51 115.83 51.45 97.63 60.98 82.99 C 72.82 64.35 93.54 51.54 115.59 49.73 Z" />
</g>
</svg>
